<?xml version="1.0" standalone="no"?>
<!DOCTYPE svg PUBLIC "-//W3C//DTD SVG 20010904//EN"
 "http://www.w3.org/TR/2001/REC-SVG-20010904/DTD/svg10.dtd">
<svg version="1.0" xmlns="http://www.w3.org/2000/svg"
 width="128.000000pt" height="128.000000pt" viewBox="0 0 128.000000 128.000000"
 preserveAspectRatio="xMidYMid meet">
<metadata>
Created by potrace 1.14, written by Peter Selinger 2001-2017
</metadata>
<g transform="translate(0.000000,128.000000) scale(0.100000,-0.100000)"
fill="#000000" stroke="none">
<path d="M337 1179 c-20 -11 -49 -38 -65 -61 -23 -36 -27 -54 -30 -130 l-4
-88 -69 0 c-59 0 -69 -3 -70 -17 0 -10 -2 -40 -4 -68 -1 -27 -6 -115 -9 -195
-4 -80 -9 -181 -11 -225 -2 -44 -6 -128 -9 -187 l-6 -108 581 0 581 0 -7 68
c-3 37 -8 90 -10 117 -5 71 -17 235 -20 265 -1 14 -3 35 -4 48 -1 22 -2 22
-156 22 l-155 0 -1 73 c-1 39 -3 92 -4 117 -2 25 -3 55 -4 68 -1 21 -5 22 -71
22 l-70 0 0 75 c0 108 -28 167 -95 203 -47 26 -239 26 -288 1z m56 -61 c-24
-36 -28 -53 -31 -130 l-4 -88 -39 0 -39 0 0 79 c0 91 21 134 80 163 55 28 63
22 33 -24z m225 16 c45 -29 62 -73 62 -156 l0 -78 -40 0 -40 0 0 75 c0 77 -16
132 -48 169 -16 18 -16 19 13 12 17 -4 40 -14 53 -22z m-101 -16 c35 -39 43
-64 43 -142 l0 -76 -80 0 -80 0 0 76 c0 41 5 85 11 97 18 35 51 67 69 67 9 0
26 -10 37 -22z"/>
</g>
</svg>
